<svg width="100" height="100" viewBox="0 0 100 100" xmlns="http://www.w3.org/2000/svg">
  <!-- Cute Elephant -->
  <defs>
    <linearGradient id="elephant-body" x1="0%" y1="0%" x2="100%" y2="100%">
      <stop offset="0%" style="stop-color:#A855F7;stop-opacity:1" />
      <stop offset="100%" style="stop-color:#EC4899;stop-opacity:1" />
    </linearGradient>
    <linearGradient id="elephant-ears" x1="0%" y1="0%" x2="100%" y2="100%">
      <stop offset="0%" style="stop-color:#06B6D4;stop-opacity:1" />
      <stop offset="100%" style="stop-color:#10B981;stop-opacity:1" />
    </linearGradient>
  </defs>
  
  <!-- Body -->
  <ellipse cx="50" cy="55" rx="25" ry="20" fill="url(#elephant-body)" />
  
  <!-- Head -->
  <circle cx="50" cy="30" r="18" fill="url(#elephant-body)" />
  
  <!-- Ears -->
  <ellipse cx="35" cy="25" rx="12" ry="15" fill="url(#elephant-ears)" />
  <ellipse cx="65" cy="25" rx="12" ry="15" fill="url(#elephant-ears)" />
  
  <!-- Trunk -->
  <path d="M50 40 Q45 50 40 60 Q35 70 45 75" 
        stroke="url(#elephant-body)" 
        stroke-width="8" 
        fill="none" 
        stroke-linecap="round" />
  
  <!-- Eyes -->
  <circle cx="45" cy="27" r="3" fill="#FFFFFF" />
  <circle cx="55" cy="27" r="3" fill="#FFFFFF" />
  <circle cx="45" cy="27" r="1.5" fill="#000000" />
  <circle cx="55" cy="27" r="1.5" fill="#000000" />
  
  <!-- Happy mouth -->
  <path d="M47 35 Q50 38 53 35" 
        stroke="#000000" 
        stroke-width="2" 
        fill="none" 
        stroke-linecap="round" />
  
  <!-- Legs -->
  <rect x="35" y="70" width="6" height="15" fill="url(#elephant-body)" rx="3" />
  <rect x="45" y="70" width="6" height="15" fill="url(#elephant-body)" rx="3" />
  <rect x="55" y="70" width="6" height="15" fill="url(#elephant-body)" rx="3" />
  <rect x="65" y="70" width="6" height="15" fill="url(#elephant-body)" rx="3" />
  
  <!-- Cute blush -->
  <ellipse cx="38" cy="32" rx="3" ry="2" fill="#F472B6" opacity="0.6" />
  <ellipse cx="62" cy="32" rx="3" ry="2" fill="#F472B6" opacity="0.6" />
</svg> 