<svg width="120" height="120" viewBox="0 0 120 120" xmlns="http://www.w3.org/2000/svg">
  <defs>
    <!-- Gradient for hammer head (steel) -->
    <linearGradient id="headGrad" x1="0%" y1="0%" x2="0%" y2="100%">
      <stop offset="0%" stop-color="#D1D5DB" />
      <stop offset="100%" stop-color="#6B7280" />
    </linearGradient>
    <!-- Gradient for hammer handle (red) -->
    <linearGradient id="handleGrad" x1="0%" y1="0%" x2="0%" y2="100%">
      <stop offset="0%" stop-color="#EF4444" />
      <stop offset="100%" stop-color="#7F1D1D" />
    </linearGradient>
    <!-- Simple drop shadow -->
    <filter id="shadow" x="-20%" y="-20%" width="140%" height="140%">
      <feDropShadow dx="0" dy="3" stdDeviation="4" flood-opacity="0.25" />
    </filter>
  </defs>

  <!-- Hammer group with shadow -->
  <g filter="url(#shadow)" stroke="#000" stroke-width="3" stroke-linejoin="round" stroke-linecap="round">
    <!-- Handle -->
    <path d="M30 90 L55 65 Q58 62 65 69 L40 94 Z" fill="url(#handleGrad)" />

    <!-- Head -->
    <!-- Main head rectangle -->
    <path d="M60 45 L90 45 Q94 45 94 49 L94 57 Q94 61 90 61 L60 61 Z" fill="url(#headGrad)" />
    <!-- Claw curve -->
    <path d="M60 45 Q50 35 55 25 Q80 25 90 35 L90 45 Z" fill="url(#headGrad)" />
    <!-- Nail-hitting face small nib -->
    <rect x="90" y="48" width="12" height="10" rx="2" ry="2" fill="url(#headGrad)" />
  </g>
  
  <!-- Glossy highlight on handle -->
  <path d="M36 85 Q52 68 60 75" fill="none" stroke="#FFFFFF" stroke-opacity="0.5" stroke-width="4" stroke-linecap="round" />
  <!-- Glossy highlight on head -->
  <path d="M70 42 Q80 38 88 44" fill="none" stroke="#FFFFFF" stroke-opacity="0.5" stroke-width="4" stroke-linecap="round" />
</svg> 